<?xml version="1.0" encoding="UTF-8" standalone="no"?>
<svg width="400px" height="350px" viewBox="0 0 400 350" version="1.1" xmlns="http://www.w3.org/2000/svg" xmlns:xlink="http://www.w3.org/1999/xlink">
    <!-- Generator: Sketch 40.1 (33804) - http://www.bohemiancoding.com/sketch -->
    <title>2015</title>
    <desc>Created with Sketch.</desc>
    <defs></defs>
    <g id="Page-1" stroke="none" stroke-width="1" fill="none" fill-rule="evenodd">
        <g id="2015" fill="#FFFFFF">
            <path d="M121.2,201.6 C121.4,201.6 131.3,190.9 131.4,190.8 C131.5,190.7 140.8,180.1 140.9,180 C146.9,173.1 150.4,166.1 150.4,158.7 C150.4,149.1 143.8,142.5 133.1,142.5 C123.3,142.5 117.2,148.7 115.4,155.8 L121.5,157.4 C122.6,152.5 125.7,147.9 132.6,147.9 C139.6,147.9 144.2,152.3 144.2,159.1 C144.2,165.4 142.1,170.2 136.9,176 C136.7,176.3 114.5,201.6 114,202 L115,207.6 L151.8,207.6 L151.8,201.9 L130.9,201.9 L121.2,202 L121.2,201.6 Z M179.433334,208.5 C193.733334,208.5 200.433334,197.4 200.433334,174.9 C200.433334,152.4 194.133334,142 179.933334,142 C165.633334,142 158.933334,153.2 158.933334,175.6 C158.933334,198.1 165.133334,208.5 179.433334,208.5 L179.433334,208.5 Z M165.133334,174.9 C165.133334,156.6 168.833334,147.6 179.433334,147.6 C190.133334,147.6 194.233334,157.3 194.233334,175.6 C194.233334,194 190.533334,202.9 179.833334,202.9 C169.233334,202.9 165.133334,193.3 165.133334,174.9 L165.133334,174.9 Z M222.366668,142.9 L203.966668,155.2 L207.566668,160.2 L215.966668,154.3 L222.966668,149.3 L223.366668,149.3 L223.066668,166.5 L223.066668,207.6 L228.966668,207.6 L228.966668,142.9 L222.366668,142.9 Z M261.600002,208.4 C273.700002,208.4 281.700002,200.5 281.700002,187.2 C281.700002,174.6 274.800002,168.7 263.500002,168.7 C258.500002,168.7 254.700002,170.3 252.300002,172.2 L251.800002,172.1 L253.800002,148.5 L278.800002,148.5 L278.800002,142.9 L248.600002,142.9 L245.800002,175.5 L252.900002,178 C254.700002,176 257.800002,174 262.500002,174 C271.000002,174 275.500002,178.3 275.500002,187.7 C275.500002,197.1 271.200002,202.8 262.300002,202.8 C254.600002,202.8 251.100002,198.8 249.200002,194.8 L243.300002,197.9 C246.000002,202.6 251.100002,208.4 261.600002,208.4 L261.600002,208.4 Z"></path>
        </g>
    </g>
</svg>