<?xml version="1.0" encoding="UTF-8" standalone="no"?>
<svg width="400px" height="350px" viewBox="0 0 400 350" version="1.1" xmlns="http://www.w3.org/2000/svg" xmlns:xlink="http://www.w3.org/1999/xlink">
    <!-- Generator: Sketch 40.1 (33804) - http://www.bohemiancoding.com/sketch -->
    <title>studenci</title>
    <desc>Created with Sketch.</desc>
    <defs></defs>
    <g id="Page-1" stroke="none" stroke-width="1" fill="none" fill-rule="evenodd">
        <g id="studenci" stroke="#FFFFFF">
            <g id="Group-4" transform="translate(106.000000, 113.000000)">
                <path d="M0.360304139,103.352572 C0.360304139,103.352572 1.60334661,93.8729121 7.88393478,89.3329213 C9.38501907,88.2478463 11.7603443,86.3890831 14.72648,85.4524617 C19.816862,83.8450637 25.7758597,83.4372553 25.7758597,83.4372553 L25.7758597,75.4398799 C25.7758597,75.4398799 20.999318,75.1160328 18.605414,74.6857539 C15.8736791,74.1947534 11.0080464,71.9219158 11.0080464,71.9219158 C11.0080464,71.9219158 14.6158701,69.7748949 15.3659937,61.1387522 C16.111142,52.5598895 13.9899421,37.5089097 16.5730478,32.3356187 C17.9554887,29.566948 20.2241197,25.8892373 24.1728988,24.106305 C29.2484764,21.8146065 30.1805499,21.7963703 36.0365209,21.7963703 C41.892492,21.7963703 46.3259164,23.4449696 48.6604617,25.3546525 C50.995007,27.2643354 52.5027676,27.2126368 55.9533971,35.2738901 C59.4040265,43.3351434 55.617263,55.2502676 56.5072575,63.1236561 C56.9918657,67.410771 60.0772052,71.7554003 60.0772052,71.7554003 C60.0772052,71.7554003 56.5072575,74.6857539 51.9994978,74.9059529 C47.491738,75.126152 45.2378793,75.4398799 45.2378793,75.4398799 L45.2378793,82.4330523 C45.2378793,82.4330523 47.8963415,81.422049 53.0217666,83.4372553 C58.1471917,85.4524617 58.1471917,87.7559807 58.1471917,87.7559807 C58.1471917,87.7559807 47.7692377,89.9400558 43.4740196,92.6739849 C39.6014129,95.1389196 33.6437172,103.352572 33.6437172,103.352572 L0.360304139,103.352572 Z" id="Path-2" stroke-width="3"></path>
                <path d="M36.8387537,123.439763 C36.8387537,123.439763 36.2022629,119.335394 37.6166859,114.69503 C39.021122,110.087431 42.4654539,104.952947 45.5622505,102.344043 C48.6353971,99.7550642 54.7109648,95.835225 60.8876093,93.6809996 C68.4852811,91.0311633 76.0455427,90.4099145 76.0455427,90.4099145 C76.0455427,90.4099145 78.536219,87.0741374 79.055538,84.5130293 C79.5395507,82.1260401 79.055538,75.5656226 79.055538,75.5656226 C79.055538,75.5656226 76.8900647,74.339536 76.0455427,72.202484 C74.7507418,68.926007 72.6375694,59.3250357 72.6375694,59.3250357 C72.6375694,59.3250357 69.6905364,57.9492094 67.753875,54.1882746 C66.6095944,51.9661179 66.1750179,47.4206059 65.9433034,45.8688359 C65.624544,43.7341347 68.7288053,40.3866467 68.7288053,40.3866467 C68.7288053,40.3866467 65.3579435,25.9363578 71.7759121,14.2747433 C78.1938806,2.61312879 88.6847781,0.543936499 94.9280023,0.543936499 C101.171226,0.543936499 110.833403,0.543936499 117.231244,13.2391009 C123.629085,25.9342652 120.505643,40.3866467 120.505643,40.3866467 C120.505643,40.3866467 123.499544,42.9470392 122.98866,45.8688359 C122.774907,47.0913121 122.590885,50.1653905 121.666641,52.31713 C119.949968,56.3137272 117.140669,59.6312727 117.140669,59.6312727 C117.140669,59.6312727 116.07324,67.3924824 114.506695,70.8171262 C113.384982,73.2693163 108.587342,77.1195931 108.587342,77.1195931 L109.736447,89.5303945 C109.736447,89.5303945 132.401071,89.7618951 142.721969,100.239575 C153.042868,110.717256 153.042868,123.462548 153.042868,123.462548 L36.8387537,123.439763 Z" id="Path-3" stroke-width="5"></path>
                <path d="M130.434311,86.4331483 C130.434311,86.4331483 142.246024,89.8184633 146.936019,93.0670444 C150.36872,95.4447459 154.802399,103.311996 154.802399,103.311996 L188.844893,103.223883 C188.844893,103.223883 187.32871,93.8186106 183.123599,90.376018 C181.289948,88.8748653 177.214892,86.354938 173.362339,84.9312539 C168.294732,83.0585546 163.49271,82.4688456 163.49271,82.4688456 L163.316608,74.6847143 C163.316608,74.6847143 169.580647,74.3220667 172.095368,73.6789531 C174.446668,73.0776324 177.914672,70.9514113 177.914672,70.9514113 C177.914672,70.9514113 174.786713,67.0889848 173.362339,57.9106496 C172.83828,54.5337359 172.138715,51.9169887 172.095368,47.3648425 C172.030015,40.5017875 171.337891,33.4780383 169.48174,29.8652326 C168.454198,27.8652282 165.271833,24.6702309 161.2273,23.0884502 C157.343415,21.569497 152.571254,21.6230712 152.571254,21.6230712 C152.571254,21.6230712 146.627356,21.9810579 142.05778,24.5069942 C139.310468,26.0256327 137.674416,29.2423068 136.397046,31.0638904 C133.318108,35.4545863 133.128418,49.3493753 133.128418,49.3493753 C133.128418,49.3493753 133.769147,59.2381892 133.128418,62.4674174 C132.286764,66.7092936 128.681268,71.7626883 128.681268,71.7626883 C128.681268,71.7626883 133.776157,74.1382037 136.397046,74.6847143 C138.925586,75.2119682 144.129557,74.9839819 144.129557,74.9839819 L144.28016,82.6720618 L130.966598,84.7113676" id="Path-4" stroke-width="3"></path>
            </g>
        </g>
    </g>
</svg>