<?xml version="1.0" encoding="UTF-8" standalone="no"?>
<svg width="400px" height="350px" viewBox="0 0 400 350" version="1.1" xmlns="http://www.w3.org/2000/svg" xmlns:xlink="http://www.w3.org/1999/xlink">
    <!-- Generator: Sketch 40.1 (33804) - http://www.bohemiancoding.com/sketch -->
    <title>zaglosuj</title>
    <desc>Created with Sketch.</desc>
    <defs></defs>
    <g id="Page-1" stroke="none" stroke-width="1" fill="none" fill-rule="evenodd">
        <g id="zaglosuj">
            <g id="Group-11" transform="translate(133.000000, 104.000000)">
                <polygon id="Path-12" stroke="#FFFFFF" stroke-width="5" points="0.251472042 55.7645108 30.4263433 55.8686322 30.4263433 141.753596 0.251472042 141.753596"></polygon>
                <rect id="Rectangle-4" fill="#FFFFFF" x="10.8633094" y="65.9285714" width="10.1438849" height="10.1428571"></rect>
                <path d="M30.0549379,67.6502354 C30.0549379,67.6502354 44.9439623,67.3885855 48.8059115,59.1283049 C50.5836507,55.3259183 54.1610009,47.5969229 55.5044875,39.0126079 C57.3882339,26.9762603 56.5808129,20.0295329 56.5808129,17.2698684 C56.5808129,14.1674321 58.3790154,5.16749984 60.5267519,2.72113283 C61.6519873,1.4394398 63.6199139,0.656329983 66.1859256,0.656329983 C66.4646896,0.656329983 69.2686344,0.741496125 70.6849025,1.64579725 C72.4471602,2.77101609 75.6440732,6.55454096 75.8701131,6.85998589 C76.6380541,7.89769551 80.1317405,13.0276253 81.7542304,15.9752384 C82.3531642,17.0633347 84.9880533,22.6374075 86.0102075,29.0606897 C87.4561008,38.1467754 87.2635716,48.7051598 87.2635716,48.7051598 C87.2635716,48.7051598 109.753355,45.0263848 117.071993,45.6428777 C120.854259,45.9614808 126.979908,47.1309898 129.919498,48.7051598 C133.141935,50.4307956 133.004862,53.4672766 133.004862,53.4672766 C133.004862,53.4672766 133.612058,57.6122733 133.004862,59.863647 C132.107264,63.1917797 128.49048,69.2967433 128.49048,69.2967433 C128.49048,69.2967433 133.004862,73.6038307 134.363671,81.0638947 C135.722481,88.5239587 130.062606,94.2803046 130.062606,94.2803046 C130.062606,94.2803046 132.394727,103.107744 131.712887,106.854107 C131.046944,110.513127 123.614562,118.539883 123.614562,118.539883 C123.614562,118.539883 127.893048,129.829084 125.330079,134.413266 C123.228124,138.172868 117.116137,140.474447 110.969728,140.396301 C104.82332,140.318154 86.1763475,136.800408 72.9583653,135.240583 C59.5692547,133.660564 31.1484497,130.976767 31.1484497,130.976767" id="Path-13" stroke="#FFFFFF" stroke-width="5"></path>
            </g>
        </g>
    </g>
</svg>
