<?xml version="1.0" encoding="UTF-8" standalone="no"?>
<svg width="400px" height="350px" viewBox="0 0 400 350" version="1.1" xmlns="http://www.w3.org/2000/svg" xmlns:xlink="http://www.w3.org/1999/xlink">
    <!-- Generator: Sketch 40.1 (33804) - http://www.bohemiancoding.com/sketch -->
    <title>slawa</title>
    <desc>Created with Sketch.</desc>
    <defs></defs>
    <g id="Page-1" stroke="none" stroke-width="1" fill="none" fill-rule="evenodd">
        <g id="slawa" stroke="#FFFFFF" stroke-width="5">
            <path d="M202.860408,217.368977 C201.390037,216.595957 199.005661,216.596185 197.535724,217.368977 L162.283838,235.90199 C160.813467,236.67501 159.849225,235.973904 160.129958,234.337105 L166.862469,195.083553 C167.143285,193.446271 166.406256,191.178665 165.217051,190.019477 L136.697677,162.219958 C135.508121,161.060428 135.876946,159.926726 137.520385,159.68792 L176.933192,153.960904 C178.577117,153.722028 180.505983,152.320342 181.240952,150.831133 L198.866895,115.117072 C199.602081,113.627423 200.794268,113.627862 201.529237,115.117072 L219.15518,150.831133 C219.890366,152.320781 221.8195,153.722098 223.46294,153.960904 L262.875747,159.68792 C264.519671,159.926796 264.88766,161.06077 263.698456,162.219958 L235.179081,190.019477 C233.989526,191.179007 233.25293,193.446754 233.533663,195.083553 L240.266174,234.337105 C240.54699,235.974387 239.582231,236.674782 238.112294,235.90199 L202.860408,217.368977 Z" id="Star"></path>
        </g>
    </g>
</svg>