<?xml version="1.0" encoding="UTF-8" standalone="no"?>
<svg width="400px" height="350px" viewBox="0 0 400 350" version="1.1" xmlns="http://www.w3.org/2000/svg" xmlns:xlink="http://www.w3.org/1999/xlink">
    <!-- Generator: Sketch 40.1 (33804) - http://www.bohemiancoding.com/sketch -->
    <title>rozglos</title>
    <desc>Created with Sketch.</desc>
    <defs></defs>
    <g id="Page-1" stroke="none" stroke-width="1" fill="none" fill-rule="evenodd">
        <g id="rozglos">
            <g id="Group-5" transform="translate(137.000000, 117.000000)">
                <path d="M0.0474997671,39.8790102 L0.0474997671,76.6018044 C0.0474997671,76.6018044 2.16865596,82.6296961 5.33796248,83.7131156 C10.1130651,85.3454724 24.5130069,84.70797 24.5130069,84.70797 L56.756381,114.537169 C56.756381,114.537169 62.3457784,117.221531 66.7449718,115.628611 C71.1441653,114.035692 73.4296543,107.417486 73.4296543,107.417486 L73.4296543,9.11707406 C73.4296543,9.11707406 72.2753311,5.07603021 68.8446874,2.89425398 C66.9257319,1.67386158 63.416661,0.492997874 60.993116,0.492997874 C58.5695709,0.492997874 56.2402819,2.89425398 56.2402819,2.89425398 C56.2402819,2.89425398 30.9635075,28.5757683 25.0646699,31.6318227 C18.0055072,32.8657939 11.5464821,31.5753876 8.20096682,32.0894904 C4.85545151,32.6035933 3.19582882,33.7774956 1.72578007,35.2182925 C0.631496454,36.2908014 0.0474997671,39.8790102 0.0474997671,39.8790102 Z" id="Path-5" stroke="#FFFFFF" stroke-width="5"></path>
                <path d="M86.5310226,38.9206494 L92.5303869,30.4894098 C92.5303869,30.4894098 100.376891,40.336918 102.618768,45.7491918 C104.50371,50.2997623 104.910843,55.5883168 104.910843,60.3779428 C104.910843,65.1675689 103.501404,69.7167959 101.232382,74.4388301 C99.2541558,78.5556946 92.1690992,86.894639 92.1690992,86.894639 L86.4332429,77.1822112 C86.4332429,77.1822112 94.4705955,68.7352314 94.4953783,59.0376336 C94.5201611,49.3400357 86.5310226,38.9206494 86.5310226,38.9206494 Z" id="Path-6" fill="#FFFFFF"></path>
                <path d="M98.1968851,22.2750953 L104.459434,13.0531603 C104.459434,13.0531603 127.167966,31.8332753 125.885957,59.7956372 C124.603948,87.7579992 104.060192,103.261654 104.060192,103.261654 L98.2024302,95.0010491 C98.2024302,95.0010491 112.984352,85.7471433 114.408314,59.7956372 C115.832276,33.8441311 98.1968851,22.2750953 98.1968851,22.2750953 Z" id="Path-7" fill="#FFFFFF"></path>
            </g>
        </g>
    </g>
</svg>