<?xml version="1.0" encoding="UTF-8" standalone="no"?>
<svg width="400px" height="350px" viewBox="0 0 400 350" version="1.1" xmlns="http://www.w3.org/2000/svg" xmlns:xlink="http://www.w3.org/1999/xlink">
    <!-- Generator: Sketch 40.1 (33804) - http://www.bohemiancoding.com/sketch -->
    <title>organizatorzy</title>
    <desc>Created with Sketch.</desc>
    <defs></defs>
    <g id="Page-1" stroke="none" stroke-width="1" fill="none" fill-rule="evenodd">
        <g id="organizatorzy" stroke="#FFFFFF">
            <g id="Group-4" transform="translate(103.000000, 112.000000)">
                <path d="M0.396101616,105.853038 C0.396101616,105.853038 1.67185573,96.1440309 8.11772254,91.4942016 C9.65830904,90.3828749 12.0961428,88.4791416 15.1403348,87.51986 C20.3646741,85.8735733 26.4804876,85.4558986 26.4804876,85.4558986 L26.4804876,77.2650383 C26.4804876,77.2650383 21.5782475,76.9333562 19.121346,76.4926673 C16.3177233,75.9897878 11.3240476,73.6619621 11.3240476,73.6619621 C11.3240476,73.6619621 15.0268141,71.4629972 15.7966777,62.6179155 C16.5614352,53.8314997 14.3844143,38.4163833 17.0354964,33.1179321 C18.4543174,30.2822774 20.7826491,26.5155898 24.8353435,24.6895221 C30.0444889,22.3423793 31.0010907,22.3237018 37.0111662,22.3237018 C43.0212418,22.3237018 47.5713352,24.0121866 49.9673159,25.9680715 C52.3632966,27.9239565 53.9107352,27.871007 57.4521707,36.1272907 C60.9936062,44.3835743 57.107191,56.5869676 58.0206064,64.6508414 C58.5179675,69.0416767 61.6845001,73.4914181 61.6845001,73.4914181 C61.6845001,73.4914181 58.0206064,76.4926673 53.3942214,76.7181937 C48.7678363,76.9437202 46.4546656,77.2650383 46.4546656,77.2650383 L46.4546656,84.4274004 C46.4546656,84.4274004 49.1830874,83.3919373 54.443392,85.4558986 C59.7036967,87.51986 59.7036967,89.8791092 59.7036967,89.8791092 C59.7036967,89.8791092 49.0526387,92.1160249 44.6443886,94.9160974 C40.6698711,97.4406677 34.555394,105.853038 34.555394,105.853038 L0.396101616,105.853038 Z" id="Path-2" stroke-width="3"></path>
                <path d="M37.8345103,126.426209 C37.8345103,126.426209 37.1812698,122.222541 38.6329144,117.46991 C40.0743094,112.750837 43.6092816,107.492131 46.7875729,104.820109 C49.9415917,102.168493 56.1770428,98.1538191 62.5162306,95.9474754 C70.3138411,93.2335301 78.073057,92.5972511 78.073057,92.5972511 C78.073057,92.5972511 80.6292774,89.1807697 81.1622627,86.5576994 C81.6590126,84.1129604 81.1622627,77.3938231 81.1622627,77.3938231 C81.1622627,77.3938231 78.9398032,76.1380731 78.073057,73.9493183 C76.7441824,70.5935717 74.5754002,60.7603189 74.5754002,60.7603189 C74.5754002,60.7603189 71.5508136,59.3512064 69.5631875,55.4992812 C68.3887942,53.2233627 67.9427815,48.5678786 67.7049693,46.9785658 C67.3778215,44.7922186 70.5637739,41.363743 70.5637739,41.363743 C70.5637739,41.363743 67.1042051,26.5638503 73.6910676,14.6201 C80.2779301,2.67634964 91.0449038,0.557096253 97.4524234,0.557096253 C103.859943,0.557096253 113.776387,0.557096253 120.342592,13.5594017 C126.908797,26.5617072 123.70316,41.363743 123.70316,41.363743 C123.70316,41.363743 126.775848,43.9860805 126.25152,46.9785658 C126.032141,48.2306181 125.843277,51.3790693 124.89471,53.582867 C123.132862,57.6761561 120.249634,61.0739648 120.249634,61.0739648 C120.249634,61.0739648 119.154115,69.0229457 117.546345,72.5304437 C116.395113,75.0419611 111.47122,78.9853897 111.47122,78.9853897 L112.650564,91.6964525 C112.650564,91.6964525 135.911625,91.9335539 146.504126,102.664726 C157.096628,113.395899 157.096628,126.449545 157.096628,126.449545 L37.8345103,126.426209 Z" id="Path-3" stroke-width="5"></path>
                <path d="M133.893108,88.5242728 C133.893108,88.5242728 146.015656,91.9914906 150.829072,95.3186664 C154.352108,97.753893 158.902462,105.81148 158.902462,105.81148 L193.840811,105.721235 C193.840811,105.721235 192.284729,96.0884157 187.968957,92.5625345 C186.087052,91.0250637 181.904757,88.4441703 177.950822,86.9860423 C172.749857,85.0680358 167.821465,84.4640596 167.821465,84.4640596 L167.64073,76.4916026 C167.64073,76.4916026 174.069611,76.1201813 176.650509,75.4615084 C179.063686,74.8456396 182.622953,72.6679777 182.622953,72.6679777 C182.622953,72.6679777 179.412679,68.7121054 177.950822,59.3117137 C177.412972,55.8531005 176.694997,53.1730449 176.650509,48.5107661 C176.583436,41.4816694 175.873099,34.2879909 173.968102,30.5877786 C172.913519,28.5393869 169.647407,25.2670914 165.49644,23.6470417 C161.510347,22.0913396 156.612603,22.14621 156.612603,22.14621 C156.612603,22.14621 150.512286,22.5128577 145.822458,25.0999053 C143.002849,26.6552851 141.323743,29.949782 140.012758,31.8154362 C136.852795,36.3123586 136.658114,50.5433118 136.658114,50.5433118 C136.658114,50.5433118 137.315704,60.6713712 136.658114,63.9787259 C135.79431,68.3232281 132.093933,73.4988824 132.093933,73.4988824 C132.093933,73.4988824 137.322898,75.9318699 140.012758,76.4916026 C142.607839,77.0316126 147.948756,76.7981105 147.948756,76.7981105 L148.103322,84.6721923 L134.439403,86.7608362" id="Path-4" stroke-width="3"></path>
            </g>
        </g>
    </g>
</svg>