<?xml version="1.0" encoding="UTF-8" standalone="no"?>
<svg width="400px" height="350px" viewBox="0 0 400 350" version="1.1" xmlns="http://www.w3.org/2000/svg" xmlns:xlink="http://www.w3.org/1999/xlink">
    <!-- Generator: Sketch 40.1 (33804) - http://www.bohemiancoding.com/sketch -->
    <title>regulamin</title>
    <desc>Created with Sketch.</desc>
    <defs></defs>
    <g id="Page-1" stroke="none" stroke-width="1" fill="none" fill-rule="evenodd">
        <g id="regulamin">
            <g id="ic_assignment_white_24px" transform="translate(134.000000, 109.000000)">
                <g id="Group">
                    <polygon id="Shape" points="0 0 133 0 133 133 0 133"></polygon>
                    <path d="M105.291667,16.625 L82.1275,16.625 C79.8,10.1966667 73.7041667,5.54166667 66.5,5.54166667 C59.2958333,5.54166667 53.2,10.1966667 50.8725,16.625 L27.7083333,16.625 C21.6125,16.625 16.625,21.6125 16.625,27.7083333 L16.625,105.291667 C16.625,111.3875 21.6125,116.375 27.7083333,116.375 L105.291667,116.375 C111.3875,116.375 116.375,111.3875 116.375,105.291667 L116.375,27.7083333 C116.375,21.6125 111.3875,16.625 105.291667,16.625 L105.291667,16.625 Z M66.5,16.625 C69.5479167,16.625 72.0416667,19.11875 72.0416667,22.1666667 C72.0416667,25.2145833 69.5479167,27.7083333 66.5,27.7083333 C63.4520833,27.7083333 60.9583333,25.2145833 60.9583333,22.1666667 C60.9583333,19.11875 63.4520833,16.625 66.5,16.625 L66.5,16.625 Z M77.5833333,94.2083333 L38.7916667,94.2083333 L38.7916667,83.125 L77.5833333,83.125 L77.5833333,94.2083333 L77.5833333,94.2083333 Z M94.2083333,72.0416667 L38.7916667,72.0416667 L38.7916667,60.9583333 L94.2083333,60.9583333 L94.2083333,72.0416667 L94.2083333,72.0416667 Z M94.2083333,49.875 L38.7916667,49.875 L38.7916667,38.7916667 L94.2083333,38.7916667 L94.2083333,49.875 L94.2083333,49.875 Z" id="Shape" stroke="#FFFFFF" stroke-width="5" stroke-linecap="round" stroke-linejoin="round"></path>
                </g>
            </g>
        </g>
    </g>
</svg>